<?xml version="1.0" encoding="UTF-8" standalone="no"?>
<!DOCTYPE svg  PUBLIC '-//W3C//DTD SVG 1.1//EN'  'http://www.w3.org/Graphics/SVG/1.1/DTD/svg11.dtd'>
<svg width="1200pt" xmlns="http://www.w3.org/2000/svg" viewBox="0 0 1200 1200" version="1.1" height="1200pt">
 <g id="shutter">
  <path d="m525.02 65.37c33.41-4.67 67.28-6.76 100.98-4.8 37.8 2.09 75.5 7.51 112.04 17.5-45.54 12.62-88.97 32.97-127.47 60.41-55.05 38.93-100.07 91.91-129.61 152.52-26.8 54.56-40.8 115.24-41.24 176.01-0.23 78.1 22.27 156.32 65.09 221.71-48.08-13.62-93.34-36.98-132.43-68.08-49.34-39.13-88.71-90.74-113.29-148.71-38.62-89.44-40.74-193.96-5.69-284.87 1.11-2.64 3.79-4.05 5.89-5.8 65.82-53.76 144.58-91.45 227.66-109.24 12.66-2.37 25.24-5.33 38.07-6.65z" fill="#e0210f"/>
  <path d="m564.7 210.71c57.18-62.42 135.79-104.67 219.39-117.97 1.4-0.24 2.68 0.62 3.99 1.02 49.01 18.2 95.39 43.51 137.11 75.04 84.91 63.68 150.11 153.07 184.81 253.32 4.8 13.71 9.2 27.6 12.7 41.7-32-32.41-69.6-59.15-110.5-79-55.59-27.05-117.41-41.02-179.2-40.62-60.16 0.34-120.19 14.26-174.28 40.58-62.2 30.05-116.45 76.4-155.8 133.19-10.19 14.33-18.91 29.62-27.38 45.01-2.46-12.26-5.89-24.36-7.21-36.83-9.11-56.95-4.18-115.89 12.88-170.9 16.73-53.54 45.4-103.33 83.49-144.54z" fill="#f66908"/>
  <path d="m213.38 223.34c1.47-1.61 3.04-3.12 4.72-4.5-21.68 81.04-17.13 168.87 12.8 247.25 21.67 57.36 56.66 109.65 101.42 151.59 45.66 42.99 101.5 75.1 161.63 92.92 43.18 12.95 88.54 18.39 133.58 16.62-38.45 36.11-84.18 64.51-133.93 82.13-31.71 11.45-64.99 18.39-98.59 21.11-62.44 4.96-126.06-5.93-183.34-31.24-55.96-24.62-105.87-62.96-143.94-110.82-1.53-3.99-1.36-8.39-2.07-12.57-19.06-129.12 11.8-264.63 83.97-373.25 18.64-28.38 40.09-54.9 63.75-79.24z" fill="#6a2d66"/>
  <path d="m705.8 390.82c69.41-25.24 146.29-29.67 218.1-12.26 80 18.8 153.3 64.59 205.4 128.13 1.5 1.99 3.8 3.73 4 6.46 1.7 12.57 3.6 25.11 4.7 37.75 1.1 9.69 1.2 19.46 2.3 29.14 0.3 12.96 0.3 25.93 0.1 38.9-1.3 13.97-1.8 28.03-3.7 41.96-9.1 81.8-37.5 161.34-82 230.56-22 34.45-48.1 66.2-77.19 94.89 5.17-18.08 9.04-36.66 11.28-55.37 5.01-36.42 4.73-73.55-0.66-109.92-1.29-12.49-4.38-24.69-6.93-36.96-10.76-44.46-28.85-87.18-53.81-125.53-49.59-77.29-126.45-136.61-213.81-164.93-45.43-15.1-93.61-21.63-141.43-20.03 38.19-36.43 83.97-64.91 133.65-82.79z" fill="#efe20f"/>
  <path d="m695.16 513.3c49.02 14.21 94.93 38.84 134.32 71.25 38.42 31.67 70.58 70.92 93.95 114.89 21.58 40.49 35.83 84.92 41.57 130.46 8.14 60.51 0.74 122.88-20.21 180.1-1.28 3.2-1.85 6.9-4.44 9.3-81.71 66.7-183.46 108.3-288.45 118.3-23.21 2.2-46.58 3.5-69.88 2.3-43.67-1.6-87.1-8.5-129.19-20.1 7.98-2.9 16.38-4.4 24.32-7.5 76.53-24.7 145.2-73.1 194.34-136.79 47.08-60.34 76.11-134.33 83.29-210.48 3.04-37.05 1.92-74.56-5.06-111.13-9.14-49.72-27.67-97.77-54.56-140.6z" fill="#3ea60a"/>
  <path d="m703.02 674.01c7.21-10.57 13.4-21.78 19.79-32.83 3.63 16.45 6.47 33.1 8.18 49.87 1.48 20.24 2.22 40.6 0.68 60.87-0.53 17.23-3.59 34.23-6.67 51.15-10.23 50.13-30.56 98.21-59.68 140.3-45.56 66.53-112.91 117.83-189.18 143.83-9.83 3.7-20 6.3-30.08 9.2-11.95 2.6-23.84 5.7-36 7.3-5.02 1-9.38-2.2-13.87-3.8-99.46-40.3-186.18-111.25-245.45-200.69-33.44-50.05-58.25-105.8-73.36-164.05 62.6 63.78 147.03 105.61 235.67 116.86 72.43 9.59 147.41-1.05 214.29-30.42 71.17-30.85 132.99-82.83 175.68-147.59z" fill="#0c2dd1"/>
 </g>
</svg>
